<svg width="50" height="50" viewBox="0 0 50 50" fill="none" xmlns="http://www.w3.org/2000/svg">
<path d="M2.08325 22.9167V27.0833C2.08325 27.0833 6.24992 27.0833 6.24992 35.4167V37.5C6.24992 40.9519 9.04815 43.75 12.4999 43.75H37.4999C40.9518 43.75 43.7499 40.9519 43.7499 37.5V35.4167C43.7499 27.0833 47.9166 27.0833 47.9166 27.0833V22.9167C47.9166 22.9167 43.7499 22.9167 43.7499 14.5833V12.5C43.7499 9.04823 40.9518 6.25 37.4999 6.25H12.4999C9.04815 6.25 6.24992 9.04823 6.24992 12.5V14.5833C6.24992 22.9167 2.08325 22.9167 2.08325 22.9167ZM43.0712 25C43.0095 25.0579 42.948 25.1175 42.887 25.1787C40.7882 27.2773 39.5833 30.6077 39.5833 35.4167V37.5C39.5833 38.6506 38.6505 39.5833 37.4999 39.5833H12.4999C11.3493 39.5833 10.4166 38.6506 10.4166 37.5V35.4167C10.4166 30.6077 9.21152 27.2773 7.11286 25.1787C7.05171 25.1175 6.99031 25.0579 6.92871 25C6.99031 24.9421 7.05171 24.8825 7.11286 24.8212C9.21152 22.7227 10.4166 19.3923 10.4166 14.5833V12.5C10.4166 11.3494 11.3493 10.4167 12.4999 10.4167H37.4999C38.6505 10.4167 39.5833 11.3494 39.5833 12.5V14.5833C39.5833 19.3923 40.7882 22.7227 42.887 24.8212C42.948 24.8825 43.0095 24.9421 43.0712 25ZM17.7083 14.5833V35.4167H28.1249C31.5768 35.4167 34.3749 32.6185 34.3749 29.1667C34.3749 26.9535 33.2247 25.0092 31.4895 23.8988C32.0001 22.9929 32.2916 21.9473 32.2916 20.8333C32.2916 17.3816 29.4935 14.5833 26.0416 14.5833H17.7083ZM21.8749 22.9167V18.75H26.0416C27.1922 18.75 28.1249 19.6827 28.1249 20.8333C28.1249 21.984 27.1922 22.9167 26.0416 22.9167H21.8749ZM21.8749 27.0833H28.1249C29.2755 27.0833 30.2083 28.016 30.2083 29.1667C30.2083 30.3173 29.2755 31.25 28.1249 31.25H21.8749V27.0833Z" fill="black"/>
</svg>
