<svg width="50" height="50" viewBox="0 0 50 50" fill="none" xmlns="http://www.w3.org/2000/svg">
<g clip-path="url(#clip0_35_108)">
<path d="M19.5417 29.4167V27.3333H22.6667V28.375H26.8333V26.2917H21.625C20.4792 26.2917 19.5417 25.3542 19.5417 24.2083V21.0833C19.5417 19.9375 20.4792 19 21.625 19H27.875C29.0208 19 29.9583 19.9375 29.9583 21.0833V23.1667H26.8333V22.125H22.6667V24.2083H27.875C29.0208 24.2083 29.9583 25.1458 29.9583 26.2917V29.4167C29.9583 30.5625 29.0208 31.5 27.875 31.5H21.625C20.4792 31.5 19.5417 30.5625 19.5417 29.4167ZM35.1667 31.5H41.4167C42.5625 31.5 43.5 30.5625 43.5 29.4167V26.2917C43.5 25.1458 42.5625 24.2083 41.4167 24.2083H36.2083V22.125H40.375V23.1667H43.5V21.0833C43.5 19.9375 42.5625 19 41.4167 19H35.1667C34.0208 19 33.0833 19.9375 33.0833 21.0833V24.2083C33.0833 25.3542 34.0208 26.2917 35.1667 26.2917H40.375V28.375H36.2083V27.3333H33.0833V29.4167C33.0833 30.5625 34.0208 31.5 35.1667 31.5ZM16.4167 21.0833C16.4167 19.9375 15.4792 19 14.3333 19H8.08333C6.9375 19 6 19.9375 6 21.0833V29.4167C6 30.5625 6.9375 31.5 8.08333 31.5H14.3333C15.4792 31.5 16.4167 30.5625 16.4167 29.4167V27.3333H13.2917V28.375H9.125V22.125H13.2917V23.1667H16.4167V21.0833Z" fill="black"/>
</g>
<defs>
<clipPath id="clip0_35_108">
<rect width="50" height="50" fill="white"/>
</clipPath>
</defs>
</svg>
