<svg width="50" height="50" viewBox="0 0 50 50" fill="none" xmlns="http://www.w3.org/2000/svg">
<path d="M21.1221 15.4678H13.3789C9.47266 14.4434 0.635742 14.71 0.635742 22.7715C0.635742 25.71 2.10059 27.7744 4.05371 28.7285C1.60254 30.9746 0.44043 32.0342 0.44043 33.5342C0.44043 34.6084 0.876953 35.5986 2.1875 36.1523C0.793945 37.4619 0 38.4131 0 40.2002C0 43.3359 2.73926 45.1631 9.9248 45.1631C16.834 45.1631 20.8418 42.583 20.8418 38.0166C20.8418 32.2881 16.4316 32.499 6.03418 31.8643L7.3457 29.7598C10.0088 30.5 18.9375 30.7363 18.9375 23.1299C18.9375 21.3037 18.1826 20.0332 17.4727 19.1191L21.126 18.8418L21.1221 15.4678ZM14.9287 39.0908C14.9287 42.2217 4.68555 42.2256 4.68555 39.3281C4.68555 38.5332 5.2002 37.8633 5.71777 37.2246C13.3066 37.7422 14.9287 37.5537 14.9287 39.0908ZM9.9668 25.9482C4.81055 25.9482 5.03906 18.999 10.084 18.999C14.9219 18.999 15.0469 25.9482 9.9668 25.9482ZM22.9844 35.7637V32.6289C25.5967 32.2715 25.6445 32.4336 25.6445 31.5547V19.8838C25.6445 19.0537 25.4443 19.1631 22.9844 18.2959L23.4209 15.0811H31.6406V31.5566C31.6406 32.1924 31.6797 32.2715 32.2764 32.3516L34.3008 32.6289V35.7637H22.9844ZM28.1064 11.9053C25.8438 11.9053 24.5332 10.5938 24.5332 8.33008C24.5332 6.06641 25.8438 4.83691 28.1064 4.83691C30.4092 4.83691 31.7197 6.06934 31.7197 8.33008C31.7197 10.5908 30.4092 11.9053 28.1064 11.9053ZM50 34.2246C48.292 35.0576 45.791 35.8125 43.5273 35.8125C38.8027 35.8125 37.0166 33.9082 37.0166 29.4199V19.0186C37.0166 18.4893 37.1191 18.6221 33.9199 18.6221V15.0879C37.4141 14.6904 38.8027 12.9395 39.2393 8.61621H43.0117C43.0117 15.0449 42.8809 14.6523 43.3301 14.6523H48.9258V18.6221H43.0117V28.1094C43.0117 28.7852 42.5312 33.1299 48.9268 30.7305L50 34.2246Z" fill="black"/>
</svg>
