<svg width="50" height="50" viewBox="0 0 50 50" fill="none" xmlns="http://www.w3.org/2000/svg">
<path d="M7.08008 4.6875L10.3027 41.1426L24.9902 45.3125L39.6191 41.1426L42.9053 4.6875H7.08008ZM36.9092 38.8965L24.9902 42.2949L13.0176 38.8965L10.249 7.58789H39.7314L36.9092 38.8965ZM13.7207 12.1582L13.8037 13.3447L14.9121 25.7227H24.9951V25.7178H30.5078L29.9512 31.5039L24.9512 32.8564V32.8662H24.9121L19.9121 31.5137L19.5947 27.9395H15.1514L15.7031 35.0049L24.9121 37.5439H24.9951V37.5244L34.1602 35L34.2432 34.2041L35.2783 22.3779L35.4346 21.1914H24.9512V21.2012H19.0381L18.6377 16.6016H35.8301L35.9131 15.6494L36.1475 13.3447L36.2305 12.1582H24.9512H13.7207Z" fill="black"/>
</svg>
