<svg width="50" height="50" viewBox="0 0 50 50" fill="none" xmlns="http://www.w3.org/2000/svg">
<path d="M27.78 33.4479L25.9925 35.9229C27.6883 37.4354 29.7967 38.1917 32.3175 38.1917C34.2425 38.1458 35.7092 37.6494 36.7175 36.7021C37.741 35.7396 38.2529 34.5937 38.2529 33.2646C38.2529 31.966 37.894 30.8965 37.1758 30.0562C36.4577 29.216 35.2508 28.5437 33.555 28.0396C32.1494 27.6119 31.1565 27.2223 30.5758 26.8708C29.9952 26.5042 29.705 26.061 29.705 25.5417C29.705 25.0681 29.9419 24.686 30.4154 24.3958C30.889 24.1056 31.5231 23.9604 32.3175 23.9604C32.8981 23.9604 33.555 24.075 34.2883 24.3042C35.0217 24.5027 35.671 24.8235 36.2362 25.2667L37.8404 22.7687C36.4348 21.6381 34.571 21.0729 32.2487 21.0729C30.5835 21.0729 29.216 21.5006 28.1467 22.3562C27.0467 23.2119 26.4967 24.2735 26.4967 25.5417C26.5119 26.886 26.955 27.9327 27.8258 28.6812C28.7119 29.4298 29.9723 30.041 31.6071 30.5146C32.9669 30.9423 33.891 31.3702 34.38 31.7979C34.8535 32.2256 35.0904 32.7452 35.0904 33.3562C35.0904 33.9521 34.8535 34.4104 34.38 34.7312C33.891 35.0673 33.1883 35.2354 32.2717 35.2354C30.7744 35.2506 29.2773 34.6548 27.78 33.4479ZM16.2584 34.7771C15.8001 34.5021 15.3723 34.0973 14.9751 33.5625L12.8209 35.3271C13.4626 36.4119 14.2571 37.1681 15.2043 37.5958C16.0904 37.9931 17.1064 38.1917 18.2522 38.1917C18.8786 38.1917 19.5279 38.0923 20.2001 37.8937C20.8723 37.6952 21.491 37.359 22.0565 36.8854C23.0494 36.091 23.569 34.7923 23.6148 32.9896V21.3479H20.5209V32.3937C20.5209 33.4479 20.2841 34.189 19.8105 34.6167C19.3369 35.0292 18.7411 35.2354 18.023 35.2354C17.3355 35.2354 16.7473 35.0827 16.2584 34.7771ZM6.25 12.5C6.25 9.04823 9.04823 6.25 12.5 6.25H37.5C40.9519 6.25 43.75 9.04823 43.75 12.5V37.5C43.75 40.9519 40.9519 43.75 37.5 43.75H12.5C9.04823 43.75 6.25 40.9519 6.25 37.5V12.5ZM12.5 10.4167C11.3494 10.4167 10.4167 11.3494 10.4167 12.5V37.5C10.4167 38.6506 11.3494 39.5833 12.5 39.5833H37.5C38.6506 39.5833 39.5833 38.6506 39.5833 37.5V12.5C39.5833 11.3494 38.6506 10.4167 37.5 10.4167H12.5Z" fill="black"/>
</svg>
