<svg width="50" height="50" viewBox="0 0 50 50" fill="none" xmlns="http://www.w3.org/2000/svg">
<g clip-path="url(#clip0_35_98)">
<path d="M46.3562 24.625C46.3537 23.1909 45.8765 21.798 44.9992 20.6636C44.1218 19.5292 42.8936 18.7172 41.5062 18.3542L47.7312 0H16.8833L23.125 18.4125C21.7775 18.8053 20.5936 19.6242 19.7508 20.7465C18.908 21.8687 18.4516 23.234 18.45 24.6375C18.45 26.8104 19.5333 28.7354 21.1854 29.9208C20.5208 30.8578 19.7643 31.726 18.9271 32.5125C17.387 33.9792 15.5849 35.1432 13.6146 35.9437C11.8771 34.7708 11.125 32.7021 11.8041 30.8479C13.2822 30.3888 14.5471 29.4158 15.3699 28.1049C16.1927 26.7941 16.5191 25.232 16.29 23.7013C16.0609 22.1706 15.2915 20.7726 14.1209 19.76C12.9503 18.7475 11.456 18.1875 9.90831 18.1812C8.18895 18.1835 6.54064 18.8674 5.32486 20.0832C4.10909 21.299 3.4251 22.9473 3.42289 24.6667C3.42289 26.4333 4.14581 28.0542 5.30414 29.2125C5.20414 29.4146 5.10206 29.6187 4.99998 29.8354C4.03123 31.8333 2.93123 34.0917 2.51039 36.625C1.67081 41.6917 3.04581 45.7583 6.36247 48.0604C8.15754 49.3264 10.3013 50.0041 12.4979 50C16.3041 50 20.1687 48.0896 23.9041 46.2354C26.5687 44.9188 29.3187 43.5437 32.025 42.8771C33.025 42.6312 34.0666 42.4875 35.1666 42.3271C37.3958 42.0083 39.6979 41.6771 41.7666 40.4729C42.9481 39.7959 43.9671 38.8687 44.7524 37.7563C45.5376 36.6439 46.0701 35.3732 46.3125 34.0333C46.675 31.9625 46.3125 29.8792 45.3875 28.0542C46.0083 27.0542 46.3562 25.8854 46.3562 24.625ZM43.5333 24.625C43.5333 26.6354 41.8979 28.2708 39.8875 28.2708C39.1304 28.2687 38.3927 28.0314 37.7764 27.5916C37.1601 27.1519 36.6957 26.5315 36.4475 25.8163C36.1992 25.1011 36.1794 24.3264 36.3907 23.5994C36.6021 22.8724 37.0341 22.229 37.6271 21.7583L37.6416 21.7437C37.7583 21.6562 37.8875 21.5688 38.0166 21.4833C38.0166 21.4833 38.0333 21.4833 38.0333 21.4688C38.0916 21.4396 38.1479 21.3958 38.2062 21.3646C38.2208 21.3646 38.2354 21.3521 38.25 21.3521C38.3083 21.3229 38.3812 21.2937 38.4521 21.2646C38.525 21.2354 38.5979 21.2083 38.6562 21.1792C38.6708 21.1792 38.6833 21.1646 38.6979 21.1646C38.7562 21.15 38.8146 21.1208 38.8729 21.1062C38.8875 21.1062 38.9146 21.0917 38.9312 21.0917C39.0021 21.0771 39.0604 21.0625 39.1333 21.05H39.1479L39.3646 21.0042C39.3791 21.0042 39.4062 21.0042 39.4229 20.9896C39.4812 20.9896 39.5375 20.975 39.5958 20.975H39.6687C39.7416 20.975 39.8146 20.9604 39.9 20.9604H40.0875C40.1458 20.9604 40.1916 20.9604 40.2479 20.975H40.2771C40.3916 20.9896 40.5083 21.0042 40.625 21.0333C41.4469 21.2094 42.1837 21.6616 42.7128 22.3147C43.2419 22.9678 43.5315 23.7845 43.5333 24.625ZM20.9229 2.89583H43.6937L38.4666 18.3125C38.25 18.3542 38.0333 18.4271 37.8166 18.5L32.3166 7.28125L26.8 18.4271C26.5833 18.3563 26.35 18.3125 26.1187 18.2687L20.9229 2.89583ZM31.2729 23.3646C31.0066 22.0283 30.3222 20.8113 29.3187 19.8896L32.3146 13.8396L35.3396 20.0208C34.4437 20.9167 33.7916 22.0625 33.5312 23.3646H31.2729ZM24.0208 21.0771C24.0916 21.0625 24.15 21.0479 24.2229 21.0354H24.2646C24.325 21.0187 24.3812 21.0187 24.4396 21.0042H24.4979C24.5562 21.0042 24.6 20.9896 24.6562 20.9896H25.2208C25.2791 20.9896 25.3229 21.0042 25.3666 21.0042C25.3958 21.0042 25.4083 21.0042 25.4396 21.0187C25.4958 21.0333 25.5396 21.0333 25.5979 21.0479C25.6125 21.0479 25.6271 21.0479 25.6562 21.0625L25.8583 21.1042H25.8729C25.9312 21.1208 25.9896 21.1354 26.0458 21.1646C26.0604 21.1646 26.075 21.1792 26.1041 21.1792C26.1479 21.1938 26.2062 21.2083 26.25 21.2354C26.2646 21.2354 26.2791 21.25 26.2916 21.25C26.35 21.2792 26.4083 21.2937 26.4666 21.3229H26.4812C26.5481 21.3482 26.6112 21.3825 26.6687 21.425H26.6833C26.7416 21.4542 26.8 21.4958 26.8583 21.525C26.8729 21.525 26.8729 21.5396 26.8854 21.5396C26.9437 21.5687 26.9896 21.6125 27.0458 21.6417L27.0604 21.6562C27.2333 21.7854 27.3937 21.9312 27.5521 22.075L27.5666 22.0896C28.2118 22.7691 28.57 23.6713 28.5666 24.6083C28.5347 25.5545 28.1363 26.4512 27.4557 27.1092C26.7751 27.7672 25.8654 28.135 24.9187 28.135C23.972 28.135 23.0624 27.7672 22.3818 27.1092C21.7011 26.4512 21.3028 25.5545 21.2708 24.6083C21.2685 23.797 21.5382 23.0084 22.0366 22.3683C22.5351 21.7282 23.2337 21.2736 24.0208 21.0771ZM9.77497 20.975C11.7875 20.975 13.4229 22.6125 13.4229 24.6229C13.4229 26.6333 11.7875 28.2708 9.77706 28.2708C7.76664 28.2708 6.12706 26.6354 6.12706 24.625C6.12706 22.6146 7.76456 20.975 9.77497 20.975ZM43.4479 33.5271C43.2832 34.4532 42.9163 35.3317 42.3733 36.0998C41.8302 36.8679 41.1245 37.5067 40.3062 37.9708C38.7271 38.8833 36.7875 39.1729 34.7458 39.4625C33.5978 39.6096 32.4576 39.8119 31.3291 40.0687C28.3187 40.8083 25.425 42.2562 22.6166 43.6458C19.025 45.425 15.6375 47.1042 12.4979 47.1042C10.8879 47.1142 9.31646 46.6122 8.01039 45.6708C4.82498 43.4708 4.98331 39.3458 5.36039 37.0875C5.70831 34.9729 6.67706 32.9917 7.60414 31.0938C7.66248 30.9792 7.70623 30.8771 7.76456 30.7604C8.08122 30.8771 8.41456 30.9646 8.76248 31.0229C8.21247 34.0917 9.77497 37.2604 12.8166 38.825L13.3666 39.1146L13.9583 38.8979C16.4916 38 18.8375 36.5375 20.9083 34.5833C22.0519 33.517 23.0626 32.3167 23.9187 31.0083C24.2521 31.0646 24.5854 31.0792 24.9187 31.0792C26.3518 31.0758 27.7436 30.5985 28.8771 29.7217C30.0106 28.8448 30.8222 27.6176 31.1854 26.2312H33.6166C33.9775 27.6197 34.789 28.849 35.9239 29.7264C37.0589 30.6038 38.4529 31.0796 39.8875 31.0792C41.0875 31.0792 42.2 30.7458 43.1583 30.1833C43.5333 31.2667 43.65 32.3979 43.4479 33.5271Z" fill="black"/>
</g>
<defs>
<clipPath id="clip0_35_98">
<rect width="50" height="50" fill="white"/>
</clipPath>
</defs>
</svg>
