<svg width="50" height="50" viewBox="0 0 50 50" fill="none" xmlns="http://www.w3.org/2000/svg">
<g clip-path="url(#clip0_35_113)">
<path d="M24.6875 12.0409C24.7851 12.0898 24.8633 12.2069 24.9805 12.2069C25.0879 12.2069 25.2539 12.1679 25.2637 12.0605C25.2832 11.9237 25.0781 11.8358 24.9512 11.7773C24.7851 11.7089 24.5703 11.6796 24.4141 11.7675C24.375 11.787 24.3359 11.8358 24.3555 11.8749C24.3848 12.0019 24.5801 11.9823 24.6875 12.0409ZM22.5488 12.2069C22.666 12.2069 22.7441 12.0898 22.8418 12.0409C22.9492 11.9823 23.1445 12.0019 23.1836 11.8847C23.2031 11.8456 23.1641 11.7968 23.125 11.7773C22.9687 11.6894 22.7539 11.7187 22.5879 11.787C22.4609 11.8456 22.2558 11.9335 22.2754 12.0702C22.2851 12.1679 22.4512 12.2167 22.5488 12.2069ZM44.1406 39.4335C43.7891 39.0429 43.623 38.3007 43.4375 37.5097C43.2617 36.7187 43.0566 35.869 42.4121 35.3222C42.2851 35.2147 42.1582 35.1171 42.0215 35.039C41.8945 34.9608 41.7578 34.8925 41.6211 34.8437C42.5195 32.1776 42.168 29.5214 41.2598 27.119C40.1465 24.1796 38.2031 21.6112 36.7187 19.8534C35.0488 17.7538 33.4277 15.7616 33.457 12.8222C33.5058 8.33975 33.9551 0.00967179 26.0547 -9.38306e-05C16.0547 -0.0196251 18.5547 10.0976 18.4473 13.203C18.2812 15.4882 17.8223 17.2851 16.25 19.5214C14.4043 21.7187 11.8066 25.2636 10.5762 28.9647C9.99022 30.7128 9.71679 32.4901 9.97069 34.1698C9.33593 34.7362 8.85741 35.6054 8.3496 36.1425C7.93944 36.5624 7.34374 36.7187 6.68944 36.953C6.03515 37.1874 5.32226 37.539 4.8828 38.369C4.67772 38.7499 4.60936 39.1601 4.60936 39.58C4.60936 39.9608 4.66796 40.3515 4.72655 40.7323C4.84374 41.5233 4.97069 42.2655 4.80468 42.7636C4.29686 44.1698 4.22851 45.1464 4.58983 45.8593C4.96093 46.5722 5.70311 46.8847 6.55272 47.0605C8.24218 47.412 10.5371 47.3241 12.3437 48.2812C14.2773 49.2968 16.2402 49.6581 17.8027 49.2968C18.9355 49.0429 19.8633 48.3593 20.332 47.3241C21.5527 47.3144 22.9004 46.7968 25.0488 46.6796C26.5039 46.5624 28.3301 47.1972 30.4297 47.08C30.4883 47.3046 30.5664 47.5292 30.6738 47.7343V47.744C31.4844 49.3749 32.998 50.1171 34.6094 49.9901C36.2305 49.8632 37.9394 48.9159 39.3262 47.2655C40.6543 45.664 42.8418 44.9999 44.2969 44.121C45.0195 43.6815 45.6055 43.1347 45.6543 42.3339C45.6933 41.5331 45.2246 40.6444 44.1406 39.4335ZM24.9707 8.5253C25.9277 6.35733 28.3105 6.39639 29.2676 8.48623C29.9023 9.87295 29.6191 11.5038 28.8476 12.4315C28.6914 12.3534 28.2715 12.1776 27.6172 11.953C27.7246 11.8358 27.9199 11.6894 27.998 11.5038C28.4668 10.3515 27.9785 8.86709 27.1094 8.8378C26.3965 8.78897 25.7519 9.89248 25.957 11.0839C25.5566 10.8886 25.0391 10.7421 24.6875 10.6542C24.5898 9.98038 24.6582 9.22842 24.9707 8.5253ZM20.9961 7.40225C21.9824 7.40225 23.0273 8.78897 22.8613 10.6737C22.5195 10.7714 22.168 10.9179 21.8652 11.123C21.9824 10.2538 21.543 9.16006 20.9277 9.20889C20.1074 9.27725 19.9707 11.2792 20.7519 11.953C20.8496 12.0312 20.9375 11.9335 20.1758 12.4901C18.6523 11.0644 19.1504 7.40225 20.9961 7.40225ZM19.668 13.33C20.2734 12.8808 20.9961 12.3534 21.0449 12.3046C21.5039 11.8749 22.3633 10.9179 23.7695 10.9179C24.4629 10.9179 25.293 11.1425 26.2988 11.787C26.9141 12.1874 27.4023 12.2167 28.5058 12.6952C29.3262 13.037 29.8437 13.6425 29.5312 14.4726C29.2773 15.1659 28.457 15.8788 27.3144 16.2401C26.2305 16.5917 25.3808 17.8026 23.584 17.6952C23.2031 17.6757 22.9004 17.5976 22.6465 17.4901C21.8652 17.1483 21.4551 16.4745 20.6933 16.0253C19.8535 15.5565 19.4043 15.0097 19.2578 14.5312C19.1211 14.0526 19.2578 13.6523 19.668 13.33ZM19.9902 45.9472C19.7266 49.3749 15.7031 49.3065 12.6367 47.705C9.71679 46.162 5.93749 47.0702 5.16601 45.5663C4.93163 45.1073 4.93163 44.3261 5.41991 42.9882V42.9687C5.65429 42.2265 5.47851 41.4062 5.36132 40.6347C5.24413 39.873 5.18554 39.1698 5.44921 38.6815C5.79101 38.0272 6.27929 37.7929 6.89452 37.578C7.90038 37.2167 8.04686 37.246 8.80858 36.6112C9.34569 36.0546 9.73632 35.3515 10.2051 34.8534C10.7031 34.3163 11.1816 34.0624 11.9336 34.1796C12.7246 34.2968 13.4082 34.8437 14.0723 35.7421L15.9863 39.2187C16.9141 41.162 20.1953 43.9452 19.9902 45.9472ZM19.8535 43.4179C19.4531 42.7733 18.916 42.0897 18.4473 41.5038C19.1406 41.5038 19.834 41.289 20.0781 40.6347C20.3027 40.0292 20.0781 39.1796 19.3555 38.203C18.0371 36.4257 15.6152 35.0292 15.6152 35.0292C14.2969 34.2089 13.5547 33.203 13.2129 32.1093C12.8711 31.0155 12.9199 29.8339 13.1836 28.6718C13.6914 26.4355 15 24.2577 15.8398 22.8905C16.0644 22.7245 15.918 23.203 14.9902 24.9218C14.1601 26.494 12.6074 30.1269 14.7363 32.9687C14.7949 30.9472 15.2734 28.8866 16.084 26.9628C17.2558 24.287 19.7266 19.6483 19.9219 15.9569C20.0293 16.0351 20.3711 16.2694 20.5273 16.3573C20.9766 16.621 21.3183 17.0116 21.7578 17.3632C22.9687 18.3398 24.541 18.2616 25.8984 17.4804C26.5039 17.1386 26.9922 16.748 27.4512 16.6015C28.418 16.2987 29.1894 15.7616 29.6289 15.1366C30.3808 18.1054 32.1387 22.3925 33.2617 24.4823C33.8574 25.5956 35.0488 27.9491 35.5664 30.7909C35.8887 30.7812 36.25 30.83 36.6308 30.9276C37.9785 27.4413 35.4883 23.6815 34.3555 22.6366C33.8965 22.1874 33.8769 21.9921 34.1016 22.0019C35.332 23.0956 36.9531 25.2929 37.5391 27.7636C37.8125 28.8964 37.8613 30.078 37.5781 31.2499C39.1797 31.914 41.084 32.998 40.5762 34.6483C40.3613 34.6386 40.2637 34.6483 40.166 34.6483C40.4785 33.662 39.7851 32.9296 37.9394 32.0995C36.0254 31.2597 34.4238 31.2597 34.1992 33.3202C33.0176 33.7304 32.4121 34.7558 32.1094 35.9862C31.8359 37.08 31.7578 38.3983 31.6797 39.8827C31.6308 40.6347 31.3281 41.6405 31.0156 42.7147C27.8808 44.9511 23.5254 45.9276 19.8535 43.4179ZM44.9902 42.2948C44.9023 43.9355 40.9668 44.2382 38.8183 46.8358C37.5293 48.369 35.9473 49.2187 34.5605 49.3261C33.1738 49.4335 31.9726 48.8573 31.2695 47.4413C30.8105 46.3573 31.0351 45.1855 31.3769 43.8964C31.7383 42.5097 32.2754 41.0839 32.3437 39.9315C32.4219 38.4472 32.5098 37.1483 32.7539 36.1522C33.0078 35.1464 33.3984 34.4726 34.0918 34.0917C34.1211 34.0722 34.1601 34.0624 34.1894 34.0429C34.2676 35.3319 34.9023 36.6405 36.0254 36.9237C37.2558 37.246 39.0234 36.1913 39.7754 35.3319C40.6543 35.3026 41.3086 35.244 41.9824 35.83C42.9492 36.6601 42.6758 38.789 43.6523 39.8925C44.6875 41.0253 45.0195 41.7968 44.9902 42.2948ZM20.0488 14.5214C20.2441 14.7069 20.5078 14.9608 20.8301 15.2148C21.4746 15.7226 22.373 16.2499 23.4961 16.2499C24.6289 16.2499 25.6933 15.6737 26.6016 15.1952C27.0801 14.9413 27.666 14.5116 28.0469 14.1796C28.4277 13.8476 28.623 13.5644 28.3496 13.5351C28.0762 13.5058 28.0957 13.789 27.7637 14.0331C27.334 14.3456 26.8164 14.7558 26.4062 14.9901C25.6836 15.4003 24.5019 15.9862 23.4863 15.9862C22.4707 15.9862 21.6601 15.5175 21.0547 15.039C20.7519 14.7948 20.498 14.5507 20.3027 14.3651C20.1562 14.2284 20.1172 13.9159 19.8828 13.8866C19.7461 13.8769 19.707 14.248 20.0488 14.5214Z" fill="black"/>
</g>
<defs>
<clipPath id="clip0_35_113">
<rect width="50" height="50" fill="white"/>
</clipPath>
</defs>
</svg>
