<svg width="24" height="24" viewBox="0 0 24 24" fill="none" xmlns="http://www.w3.org/2000/svg">
<path d="M19.4 11.825C19.3167 9.80834 18.575 8.10001 17.175 6.70001C15.775 5.30001 14.0667 4.55834 12.05 4.47501V2.97501C13.25 3.00834 14.3792 3.26251 15.4375 3.73751C16.4958 4.21251 17.425 4.85001 18.225 5.65001C19.025 6.45001 19.6625 7.37917 20.1375 8.43751C20.6125 9.49584 20.8667 10.625 20.9 11.825H19.4ZM15.175 11.825C15.0917 10.9917 14.7583 10.2875 14.175 9.71251C13.5917 9.13751 12.8833 8.80834 12.05 8.72501V7.22501C13.3 7.30834 14.3625 7.78334 15.2375 8.65001C16.1125 9.51667 16.5917 10.575 16.675 11.825H15.175ZM19.875 21C17.9417 21 15.9708 20.5333 13.9625 19.6C11.9542 18.6667 10.0917 17.3417 8.375 15.625C6.65833 13.9083 5.33333 12.0458 4.4 10.0375C3.46667 8.02917 3 6.05834 3 4.12501C3 3.80357 3.10714 3.53571 3.32142 3.32143C3.53571 3.10715 3.80357 3.00001 4.125 3.00001H7.625C7.85833 3.00001 8.05833 3.08334 8.225 3.25001C8.39167 3.41667 8.50833 3.62501 8.575 3.87501L9.24822 7.01603C9.28274 7.25535 9.27917 7.47084 9.2375 7.66251C9.19583 7.85417 9.10642 8.01856 8.96927 8.15566L6.475 10.675C6.90833 11.4083 7.36667 12.0917 7.85 12.725C8.33333 13.3583 8.86667 13.9583 9.45 14.525C10.0667 15.1583 10.7167 15.7375 11.4 16.2625C12.0833 16.7875 12.8 17.25 13.55 17.65L15.925 15.2C16.0917 15.0167 16.2846 14.8917 16.5038 14.825C16.723 14.7583 16.9384 14.7417 17.15 14.775L20.125 15.425C20.375 15.4917 20.5833 15.6254 20.75 15.8261C20.9167 16.0268 21 16.2515 21 16.5V19.875C21 20.1964 20.8929 20.4643 20.6786 20.6786C20.4643 20.8929 20.1964 21 19.875 21ZM5.725 9.30001L7.75 7.25001L7.175 4.50001H4.5C4.53333 5.20001 4.64583 5.93751 4.8375 6.71251C5.02917 7.48751 5.325 8.35001 5.725 9.30001ZM14.95 18.375C15.6333 18.6917 16.375 18.95 17.175 19.15C17.975 19.35 18.75 19.4667 19.5 19.5V16.825L16.925 16.3L14.95 18.375Z" fill="#6A6A6A"/>
</svg>
