<svg width="50" height="50" viewBox="0 0 50 50" fill="none" xmlns="http://www.w3.org/2000/svg">
<g clip-path="url(#clip0_35_100)">
<path d="M34.6541 34.3833C36.4666 34.227 37.8687 32.6333 37.7791 30.7291C37.6812 28.825 36.1208 27.2958 34.2187 27.2958H34.0916C33.1477 27.3295 32.2558 27.7366 31.612 28.4277C30.9681 29.1188 30.6251 30.0373 30.6583 30.9812C30.7208 31.9791 31.1291 32.7916 31.6875 33.3833C29.5041 37.6291 26.2271 40.75 21.2604 43.3729C17.9208 45.1187 14.3937 45.777 10.9604 45.3104C8.08955 44.9041 5.84372 43.6229 4.46872 41.5625C2.41039 38.4395 2.22289 35.0708 3.93747 31.7C5.18747 29.2625 7.06039 27.4854 8.31039 26.6104C7.93303 25.564 7.64042 24.489 7.43539 23.3958C-1.80836 30.0166 -0.866696 39.0666 1.94164 43.3437C4.0333 46.4645 8.31039 48.4604 12.9916 48.4604C14.2416 48.4604 15.5541 48.3687 16.8312 48.0562C24.95 46.4958 31.0979 41.627 34.625 34.4479L34.6541 34.3833ZM45.7958 26.5791C40.9625 20.8958 33.8416 17.775 25.725 17.775H24.6625C24.1354 16.6208 22.9187 15.902 21.5416 15.902H21.4479C19.4833 15.902 17.9521 17.5895 18.0166 19.5541C18.0791 21.425 19.6708 22.9875 21.575 22.9875H21.7291C22.4045 22.9614 23.0581 22.7414 23.6119 22.3539C24.1657 21.9664 24.5962 21.4276 24.8521 20.802H26.0083C30.8187 20.802 35.3729 22.2062 39.525 24.952C42.7062 27.0458 44.9875 29.7916 46.2687 33.0708C47.3896 35.7541 47.3291 38.377 46.175 40.5645C44.3937 43.9958 41.3958 45.8083 37.4333 45.8083C34.9354 45.8083 32.5021 45.027 31.2521 44.4666C30.5021 45.0875 29.2521 46.1187 28.3479 46.7437C31.0937 47.9895 33.8729 48.7083 36.5562 48.7083C42.6437 48.7083 47.1687 45.277 48.8875 41.9666C50.7583 38.2208 50.6041 31.9166 45.825 26.5166L45.7958 26.5791ZM13.5208 35.5041C13.5833 37.377 15.1729 38.9375 17.0791 38.9375H17.2041C17.6733 38.9269 18.1355 38.8225 18.5637 38.6305C18.9919 38.4385 19.3773 38.1628 19.6972 37.8195C20.0172 37.4763 20.2652 37.0724 20.4267 36.6319C20.5882 36.1913 20.6598 35.7228 20.6375 35.2541C20.6375 33.3791 19.0146 31.8229 17.1104 31.8229H16.9854C16.8604 31.8229 16.6729 31.8229 16.5146 31.8833C13.925 27.5125 12.8312 22.827 13.2396 17.775C13.4896 13.9666 14.7396 10.6562 16.9833 7.91038C18.8583 5.56871 22.3854 4.41038 24.7896 4.35204C31.5312 4.22496 34.3416 12.625 34.5583 15.9645L37.6791 16.902C36.9604 6.66038 30.5958 1.29163 24.5083 1.29163C18.7916 1.29163 13.5208 5.44371 11.3958 11.5312C8.49372 19.6458 10.3979 27.452 13.9583 33.6958C13.6458 34.102 13.4583 34.8187 13.5208 35.5041Z" fill="black"/>
</g>
<defs>
<clipPath id="clip0_35_100">
<rect width="50" height="50" fill="white"/>
</clipPath>
</defs>
</svg>
