<svg width="305" height="305" viewBox="0 0 305 305" fill="none" xmlns="http://www.w3.org/2000/svg">
<path d="M190.625 222.396C194.692 226.462 200.207 228.75 205.964 228.75H212.865C221.633 228.75 228.75 221.633 228.75 212.865V209.687C228.75 204.632 226.742 199.783 223.167 196.208C219.592 192.633 214.743 190.625 209.687 190.625C204.632 190.625 199.783 188.617 196.208 185.042C192.633 181.467 190.625 176.618 190.625 171.562V168.385C190.625 159.617 197.742 152.5 206.51 152.5H213.411C219.168 152.5 224.683 154.788 228.75 158.854" stroke="black" stroke-width="16.6667" stroke-linecap="round" stroke-linejoin="round"/>
<path d="M114.375 152.5H165.208" stroke="black" stroke-width="16.6667" stroke-linecap="round" stroke-linejoin="round"/>
<path d="M139.792 152.5V228.75" stroke="black" stroke-width="16.6667" stroke-linecap="round" stroke-linejoin="round"/>
<path d="M266.875 241.458V63.5417C266.875 56.8007 264.197 50.3359 259.431 45.5694C254.664 40.8028 248.199 38.125 241.458 38.125H63.5417C56.8007 38.125 50.3359 40.8028 45.5694 45.5694C40.8028 50.3359 38.125 56.8007 38.125 63.5417V241.458C38.125 248.199 40.8028 254.664 45.5694 259.431C50.3359 264.197 56.8007 266.875 63.5417 266.875H241.458C248.199 266.875 254.664 264.197 259.431 259.431C264.197 254.664 266.875 248.199 266.875 241.458Z" stroke="black" stroke-width="16.6667" stroke-linecap="round" stroke-linejoin="round"/>
</svg>
